 <svg heigth="500" width="500" version="1.0" viewBox="0 0 375 375">
            <defs>
              <clipPath id="a"><path d="M1 1h373v373.203H1Zm0 0" /></clipPath>
            </defs>
            <g clip-path="url(#a)">
              <path
                d="M8.828 374.105a7.747 7.747 0 0 1-5.492-2.277 7.761 7.761 0 0 1 0-10.976L360.578 3.699c3.031-3.031 7.957-3.031 10.977 0a7.75 7.75 0 0 1 0 10.973L14.325 371.828a7.75 7.75 0 0 1-5.497 2.277Zm0 0"
              />
            </g>
            <path
              d="M179.676 117.883H39.895a7.761 7.761 0 0 1-7.762-7.762 7.761 7.761 0 0 1 7.762-7.762h139.78a7.761 7.761 0 0 1 7.762 7.762c.016 4.293-3.468 7.762-7.761 7.762Zm0 0"
            />
            <path
              d="M109.785 187.77a7.761 7.761 0 0 1-7.762-7.762V40.246c0-4.289 3.48-7.758 7.762-7.758a7.76 7.76 0 0 1 7.762 7.758v139.75c0 4.293-3.469 7.774-7.762 7.774ZM335.008 296.46H195.215a7.761 7.761 0 1 1 0-15.522h139.793a7.762 7.762 0 0 1 7.765 7.761c0 4.281-3.484 7.762-7.765 7.762Zm0 0"
            />
          </svg>